<svg data-name="Layer 1" xmlns="http://www.w3.org/2000/svg" width="744" height="539.286"><path d="M474.114 404.286v130H148.415c-37.109 0-67.3-29.16-67.3-65s30.191-65 67.3-65z" fill="#f2f2f2"/><path d="M482.114 533.286a5.002 5.002 0 01-5 5h-334.5a68.5 68.5 0 110-137h334.5a5 5 0 010 10h-334.5a58.5 58.5 0 100 117h334.5a5.002 5.002 0 015 5z" fill="#ffc300"/><path d="M474.114 434.286h-350a1 1 0 110-2h350a1 1 0 010 2zm0 24h-350a1 1 0 110-2h350a1 1 0 010 2zm0 24h-350a1 1 0 110-2h350a1 1 0 010 2zm0 24h-350a1 1 0 110-2h350a1 1 0 010 2z" fill="#ccc"/><path d="M725.832 428.757l-81.565 101.228-253.615-204.35c-28.896-23.283-34.111-64.932-11.624-92.84s64.292-31.671 93.188-8.388z" fill="#f2f2f2"/><path d="M651.124 534.226a5.002 5.002 0 01-7.03.756L383.623 325.11a68.5 68.5 0 0185.957-106.68l260.47 209.874a5 5 0 11-6.274 7.787L463.307 226.218a58.5 58.5 0 10-73.408 91.105l260.468 209.872a5.002 5.002 0 01.757 7.031z" fill="#ccc"/><path d="M707.009 452.117L434.471 232.52a1 1 0 111.255-1.557L708.264 450.56a1 1 0 11-1.255 1.557zm-15.059 18.689L419.414 251.208a1 1 0 011.255-1.557l272.538 219.597a1 1 0 11-1.255 1.558zm-15.057 18.688L404.355 269.897a1 1 0 011.254-1.558l272.539 219.598a1 1 0 11-1.255 1.557zm-15.058 18.688L389.297 288.585a1 1 0 111.254-1.557L663.09 506.625a1 1 0 11-1.254 1.557zM743 539.286H1a1 1 0 010-2h742a1 1 0 010 2z" fill="#ccc"/><path fill="#ffb8b8" d="M338.081 390.622l-11.432-.001-5.437-44.096 16.873.002-.004 44.095z"/><path d="M318.482 387.355h22.048v13.881H304.6a13.882 13.882 0 0113.882-13.881z" fill="#2f2e41"/><path fill="#ffb8b8" d="M221.286 390.622l-11.432-.001-5.437-44.096 16.873.002-.004 44.095z"/><path d="M201.688 387.355h22.048v13.881h-35.93a13.882 13.882 0 0113.882-13.881zM259.47 63.533v-5a32.25 32.25 0 0132.25-32.25 32.25 32.25 0 0132.25 32.25v5a23.25 23.25 0 01-23.25 23.25h-18a23.25 23.25 0 01-23.25-23.25z" fill="#2f2e41"/><circle cx="291.721" cy="63.942" r="24.561" fill="#ffb8b8"/><path d="M158.125 148.356a9.377 9.377 0 0114.28 1.677l21.054-3.983L199 158.255l-29.812 5.207a9.428 9.428 0 01-11.063-15.106z" fill="#ffb8b8"/><path d="M272.573 103.971l.275.417-34.526 22.745-58.258 18.603a3.508 3.508 0 00-2.412 3.738l1.27 10.947a3.5 3.5 0 004.21 3.018l54.83-11.752a19.806 19.806 0 007.372-3.246l38.788-27.597a10.02 10.02 0 004.158-8.947 9.975 9.975 0 00-15.432-7.509z" fill="#ccc"/><path d="M326.853 378.109a4.518 4.518 0 01-4.138-2.701l-52.41-129.501a1.5 1.5 0 00-2.808.158l-42.758 126.073a4.5 4.5 0 01-5.882 2.892l-14.338-5.377a4.489 4.489 0 01-2.897-3.705c-6.45-56.192 49.8-198.03 50.369-199.456l.157-.395 51.277 11.343.107.116c20.458 22.318 37.274 163.082 40.437 191.074a4.479 4.479 0 01-2.971 4.747l-12.657 4.476a4.457 4.457 0 01-1.488.256z" fill="#2f2e41"/><path d="M282.673 182.006c-12.424 0-26.275-2.477-30.538-12.701l-.098-.235.132-.218c3.365-5.521 7.813-14.94 5.422-16.708-4.709-3.482-6.994-9.21-6.791-17.026.44-16.965 12-32.028 28.766-37.482a127.642 127.642 0 0114.263-3.672 24.28 24.28 0 0120.133 4.971 24.526 24.526 0 019.096 18.87c.175 18.132-2.616 43.384-16.913 60.721a4.448 4.448 0 01-2.633 1.531 122.223 122.223 0 01-20.84 1.949z" fill="#ccc"/><path d="M278.051 181.327a9.556 9.556 0 0111.679-6.664 9.407 9.407 0 011.447.536l15.987-14.549 11.118 7.49-22.862 20.231a9.54 9.54 0 01-10.813 4.587 9.394 9.394 0 01-6.556-11.631z" fill="#ffb8b8"/><path d="M304.632 181.512a4.488 4.488 0 01-2.846-1.016l-6.304-5.151a4.5 4.5 0 01.109-7.056l26.442-20.28a1.503 1.503 0 00.283-2.094l-16.32-21.576a13.285 13.285 0 01.887-17.115 13.248 13.248 0 0117.888-1.43l.103.109 17.042 24.402a15.193 15.193 0 01-.36 24.186l-34.246 26.138a4.507 4.507 0 01-2.678.883z" fill="#ccc"/><path d="M269.965 57.033V44.847l21.756-9.5 20.744 9.5v12.186a2 2 0 01-2 2h-38.5a2 2 0 01-2-2z" fill="#2f2e41"/><path d="M290.722 27.9c-3.199-10.239 3.52-21.973 13.451-26.025s21.813-1.22 30.194 5.476 13.58 16.724 16.334 27.09 3.278 21.178 3.787 31.892c12.202 2.241 20.503 16.714 16.275 28.378s-19.872 17.46-30.677 11.363-13.935-22.485-6.137-32.134a26.374 26.374 0 00-30.687-40.91c-6.014 2.515-13.56-4.02-12.54-5.13z" fill="#2f2e41"/><path d="M153.614 101.083a104.449 104.449 0 01-42.348-9.275 4.473 4.473 0 01-2.652-4.104V51.286a4.505 4.505 0 014.5-4.5h81a4.505 4.505 0 014.5 4.5v36.418a4.473 4.473 0 01-2.652 4.104 104.449 104.449 0 01-42.348 9.275z" fill="#ffc300"/><path d="M153.603 71.58a4.505 4.505 0 01-1.749-.352l-64.232-27.1a4.5 4.5 0 01.154-8.352l64.232-24.368a4.484 4.484 0 013.212.007l63.372 24.367a4.5 4.5 0 01.154 8.338l-63.373 27.1a4.507 4.507 0 01-1.77.36z" fill="#ffc300"/><circle cx="116.114" cy="88.286" r="6" fill="#3f3d56"/><path d="M218.965 40.274l-63.373 27.099a4 4 0 01-3.128.008l-64.232-27.1a3.925 3.925 0 01-1.912-1.68 3.997 3.997 0 001.912 5.68l64.232 27.1a4 4 0 003.128-.008l63.373-27.1a3.997 3.997 0 001.894-5.672 3.927 3.927 0 01-1.894 1.673z" opacity=".2"/><path d="M116.618 88.262a1 1 0 001-1v-33.46L150.6 41.785a1 1 0 00.03-2L117.647 51.8a1.962 1.962 0 00-1.433.575 1.986 1.986 0 00-.597 1.425v33.461a1 1 0 001 1z" fill="#3f3d56"/></svg>ccc"/><path d="M506.05111,361.68381a9.55593,9.55593,0,0,1,11.67847-6.66417,9.40742,9.40742,0,0,1,1.44781.53625l15.98666-14.54884,11.118,7.49027-22.86179,20.23092a9.53906,9.53906,0,0,1-10.81319,4.58661A9.39418,9.39418,0,0,1,506.05111,361.68381Z" transform="translate(-228 -180.35704)" fill="#ffb8b8"/><path d="M532.63175,361.86855a4.48762,4.48762,0,0,1-2.84546-1.01514l-6.30444-5.15185a4.49995,4.49995,0,0,1,.10913-7.05518l26.44165-20.27978a1.50334,1.50334,0,0,0,.28345-2.09473L533.99577,304.6957a13.28507,13.28507,0,0,1,.88745-17.11426h0a13.24793,13.24793,0,0,1,17.88769-1.43067l.10327.10889,17.042,24.40235a15.19267,15.19267,0,0,1-.36011,24.18554l-34.24561,26.13867A4.50736,4.50736,0,0,1,532.63175,361.86855Z" transform="translate(-228 -180.35704)" fill="#ccc"/><path d="M497.96524,237.39008V225.20393l21.75561-9.5,20.74439,9.5v12.18615a2,2,0,0,1-2,2h-38.5A2,2,0,0,1,497.96524,237.39008Z" transform="translate(-228 -180.35704)" fill="#2f2e41"/><path d="M518.72211,208.25668c-3.19879-10.23852,3.51931-21.97233,13.45085-26.025s21.81344-1.21974,30.19368,5.47588,13.57963,16.72441,16.33459,27.09118,3.27788,21.17682,3.7865,31.89135c12.20223,2.24139,20.50283,16.71428,16.27576,28.37833s-19.87268,17.45879-30.67781,11.3623-13.93468-22.48461-6.13639-32.1337a26.37385,26.37385,0,0,0-30.68776-40.9097C525.24773,215.90224,517.702,209.36793,518.72211,208.25668Z" transform="translate(-228 -180.35704)" fill="#2f2e41"/><path d="M381.61417,281.43984a104.44868,104.44868,0,0,1-42.34814-9.2749,4.47254,4.47254,0,0,1-2.65186-4.104V231.643a4.505,4.505,0,0,1,4.5-4.5h81a4.50508,4.50508,0,0,1,4.5,4.5v36.418a4.47272,4.47272,0,0,1-2.65185,4.104h0A104.44869,104.44869,0,0,1,381.61417,281.43984Z" transform="translate(-228 -180.35704)" fill="#ffc300"/><path d="M381.60306,251.93691a4.50521,4.50521,0,0,1-1.74865-.35156l-64.23194-27.09961a4.49965,4.49965,0,0,1,.15308-8.353L380.00834,191.765a4.48365,4.48365,0,0,1,3.2113.00684l63.37207,24.36767a4.50012,4.50012,0,0,1,.15406,8.3379L383.373,251.57656A4.507,4.507,0,0,1,381.60306,251.93691Z" transform="translate(-228 -180.35704)" fill="#ffc300"/><circle cx="116.11417" cy="88.28592" r="6" fill="#3f3d56"/><path d="M446.96476,220.63082,383.59171,247.73a3.99993,3.99993,0,0,1-3.12744.00757l-64.23193-27.09882a3.92451,3.92451,0,0,1-1.9126-1.68109,3.997,3.997,0,0,0,1.9126,5.68109l64.23193,27.09882a3.99993,3.99993,0,0,0,3.12744-.00757l63.37305-27.09918a3.99713,3.99713,0,0,0,1.89453-5.67322A3.92676,3.92676,0,0,1,446.96476,220.63082Z" transform="translate(-228 -180.35704)" opacity="0.2"/><path d="M344.61832,268.61952a1,1,0,0,0,1-1V234.1581l32.9812-12.01514a1.00011,1.00011,0,0,0,.02979-2l-32.9812,12.01514a1.96167,1.96167,0,0,0-1.43335.57519,1.98569,1.98569,0,0,0-.59644,1.42481v33.46142A1.00005,1.00005,0,0,0,344.61832,268.61952Z" transform="translate(-228 -180.35704)" fill="#3f3d56"/></svg>